<?xml version="1.0" encoding="utf-8"?>
<!-- Generator: Adobe Illustrator 21.1.0, SVG Export Plug-In . SVG Version: 6.00 Build 0)  -->
<svg version="1.1"
	 id="svg8" inkscape:version="0.92.2 5c3e80d, 2017-08-06" sodipodi:docname="CameraButtonStand.svg" xmlns:cc="http://creativecommons.org/ns#" xmlns:dc="http://purl.org/dc/elements/1.1/" xmlns:inkscape="http://www.inkscape.org/namespaces/inkscape" xmlns:rdf="http://www.w3.org/1999/02/22-rdf-syntax-ns#" xmlns:sodipodi="http://sodipodi.sourceforge.net/DTD/sodipodi-0.dtd" xmlns:svg="http://www.w3.org/2000/svg"
	 xmlns="http://www.w3.org/2000/svg" xmlns:xlink="http://www.w3.org/1999/xlink" x="0px" y="0px" viewBox="0 0 850.4 841.9"
	 style="enable-background:new 0 0 850.4 841.9;" xml:space="preserve">
<style type="text/css">
	.st0{fill:none;stroke:#000000;stroke-width:1.000000e-03;stroke-linecap:round;stroke-linejoin:round;}
	.st1{fill:none;stroke:#0000FF;stroke-width:1.000000e-03;}
	.st2{fill:#FFFFFF;}
</style>
<sodipodi:namedview  bordercolor="#666666" borderopacity="1.0" id="base" inkscape:current-layer="layer1" inkscape:cx="701.46068" inkscape:cy="681.0425" inkscape:document-units="mm" inkscape:guide-bbox="true" inkscape:object-paths="false" inkscape:pageopacity="0.0" inkscape:pageshadow="2" inkscape:snap-bbox="true" inkscape:snap-bbox-midpoints="true" inkscape:snap-intersection-paths="true" inkscape:snap-smooth-nodes="true" inkscape:window-height="709" inkscape:window-maximized="1" inkscape:window-width="1280" inkscape:window-x="0" inkscape:window-y="1" inkscape:zoom="1.4133192" pagecolor="#ffffff" showgrid="true" showguides="true">
	<inkscape:grid  empspacing="4" id="grid4508" spacingx="1" spacingy="1" type="xygrid" units="mm"></inkscape:grid>
	<sodipodi:guide  id="guide4543" inkscape:locked="false" orientation="0,1" position="52,292"></sodipodi:guide>
	<sodipodi:guide  id="guide4545" inkscape:locked="false" orientation="0,1" position="28,244"></sodipodi:guide>
	<sodipodi:guide  id="guide4547" inkscape:locked="false" orientation="0,1" position="230,209"></sodipodi:guide>
	<sodipodi:guide  id="guide4549" inkscape:locked="false" orientation="1,0" position="222.06164,285.75001"></sodipodi:guide>
	<sodipodi:guide  id="guide4553" inkscape:locked="false" orientation="1,0" position="218.06164,264.75538"></sodipodi:guide>
	<sodipodi:guide  id="guide4594" inkscape:locked="false" orientation="1,0" position="178,217"></sodipodi:guide>
	<sodipodi:guide  id="guide4626" inkscape:locked="false" orientation="0,1" position="126,225"></sodipodi:guide>
	<sodipodi:guide  id="guide4630" inkscape:locked="false" orientation="1,0" position="202.06164,164.96909"></sodipodi:guide>
	<sodipodi:guide  id="guide4724" inkscape:locked="false" orientation="1,0" position="8,240"></sodipodi:guide>
	<sodipodi:guide  id="guide4771" inkscape:locked="false" orientation="0,1" position="32.8119,181.80122"></sodipodi:guide>
	<sodipodi:guide  id="guide4775" inkscape:locked="false" orientation="0,1" position="143,197.00001"></sodipodi:guide>
	<sodipodi:guide  id="guide4796" inkscape:locked="false" orientation="1,0" position="265,199"></sodipodi:guide>
	<sodipodi:guide  id="guide4808" inkscape:locked="false" orientation="1,0" position="295.99999,201.00002"></sodipodi:guide>
	<sodipodi:guide  id="guide4554" inkscape:locked="false" orientation="1,0" position="47.999999,240.00001"></sodipodi:guide>
</sodipodi:namedview>
<g id="layer1" inkscape:groupmode="layer" inkscape:label="Layer 1">
	<g id="g887" transform="rotate(-90,113.5,117.5)">
		<path id="rect4504" inkscape:connector-curvature="0" sodipodi:nodetypes="ccccccccccccccccc" class="st0" d="M-438.5,30.7l0-11.3
			h150.2v11.3l28.3,0l40.4,0l98.5,0V19.3l22.7,0v238.1v11.3H-121v-11.3h-167.2v11.3h-150.2L-438.5,30.7z"/>
		<path id="rect4510" inkscape:connector-curvature="0" sodipodi:nodetypes="ccccccccccccccc" class="st0" d="M-132.3,87.4l0,113.4
			h11.3l0-113.4H-132.3z M-121,200.8l0,45.4h11.3l0-45.4H-121z M-132.3,200.8h-11.3l0,45.4h11.3L-132.3,200.8z"/>
		
			<rect id="rect4516" x="-138" y="59" transform="matrix(-2.535182e-06 -1 1 -2.535182e-06 -180.0003 -50.614)" class="st0" width="45.4" height="11.3"/>
		
			<rect id="rect4520" x="-160.7" y="59" transform="matrix(-2.535182e-06 -1 1 -2.535182e-06 -202.6775 -73.2912)" class="st0" width="45.4" height="11.3"/>
	</g>
	<g id="g4749" transform="rotate(90,164.65615,-64.656146)">
		<path id="rect4506" inkscape:connector-curvature="0" sodipodi:nodetypes="ccccccccccccccccccccc" class="st0" d="M346-164.8v11.3
			h-59.5v113.4V73.3H346v11.3h42.5V73.3l11.3,0V62V16.6h11.3v-56.7v-56.7h-11.3v-45.4v-11.3l-11.3,0v-11.3H346z"/>
		
			<rect id="rect4578" x="337.5" y="-57.1" transform="matrix(2.535182e-06 1 -1 2.535182e-06 314.4534 -394.5802)" class="st0" width="34" height="34"/>
	</g>
	<g id="g4759" transform="rotate(-90,202.24272,206.24278)">
		<path id="path4564" inkscape:connector-curvature="0" sodipodi:nodetypes="cccccccccccccccccccccc" class="st0" d="M101.9,19.3
			v11.3H90.5v113.4v113.4h11.3v11.3h42.5v-11.3l59.5,0v-11.3h11.3v-45.4h-11.3V87.4h11.3V42h-11.3V30.7l-59.5,0V19.3H101.9z"/>
		<g id="g4660" transform="translate(133.42376,-162.88447)">
			
				<rect id="rect4596" x="23" y="277.9" transform="matrix(-2.535182e-06 -1 1 -2.535182e-06 -262.6818 312.9457)" class="st0" width="4.3" height="19.8"/>
			
				<rect id="rect4598" x="23" y="316.2" transform="matrix(-2.535182e-06 -1 1 -2.535182e-06 -300.9496 351.2135)" class="st0" width="4.3" height="19.8"/>
		</g>
	</g>
	<g id="g881" transform="rotate(-180,159.06164,83)">
		<path id="path4562" inkscape:connector-curvature="0" sodipodi:nodetypes="ccccccccccccccccccccccccccccc" class="st0" d="
			M30.5-143.5h11.3l0,45.4H30.5l0,11.3h11.3V80.5H30.7v19.8v8.5H19.1L-182.3-64.1v-34v-102V-268v-68.2L19.1-509.1h11.5v8.5v19.8
			h11.2v167.2H30.5l0,11.3h11.3l0,45.4H30.5v56.7V-143.5z"/>
		<path id="path4570" inkscape:connector-curvature="0" class="st0" d="M-106.1-200.1c0,13.3-10.8,24.1-24.1,24.1c0,0,0,0,0,0
			c-13.3,0-24.1-10.8-24.1-24.1c0-13.3,10.8-24.1,24.1-24.1C-116.9-224.2-106.1-213.5-106.1-200.1
			C-106.1-200.1-106.1-200.1-106.1-200.1z"/>
		<path id="path4584" inkscape:connector-curvature="0" class="st0" d="M-4.6-200.1c0,5.7-4.6,10.3-10.3,10.3s-10.3-4.6-10.3-10.3
			c0-5.7,4.6-10.3,10.3-10.3S-4.6-205.8-4.6-200.1z"/>
		<path id="path4765_2_" inkscape:connector-curvature="0" class="st1" d="M30.3-313.5h-212.6l-150.6-70.7V9.3c0,0,0,0.7,150.8-96.1
			H30.5"/>
		<path id="rect4790" inkscape:connector-curvature="0" class="st0" d="M-23.5-86.8H19v11.3h-42.5V-86.8z"/>
		<path id="rect4792" inkscape:connector-curvature="0" class="st0" d="M-71.7-75.4h42.5v11.3h-42.5V-75.4z"/>
		<path id="rect4823" inkscape:connector-curvature="0" class="st0" d="M-23.5-313.5H19v-11.3h-42.5V-313.5z"/>
		<path id="rect4825" inkscape:connector-curvature="0" class="st0" d="M-71.7-324.9h42.5v-11.3h-42.5V-324.9z"/>
	</g>
	<g>
		<path d="M378.3,560.1c0,3.1,0,6.2,0,9.3c-0.1,0.1-0.1,0.2-0.2,0.3c-0.6,1.9-1.9,3-3.8,3.3c-1.4,0.2-2.7,0.4-4.1,0.6
			c-0.6,0.1-0.9,0.3-1.2,1c-0.9,2.3-1.9,4.7-2.9,7c-0.2,0.5-0.3,0.8,0.1,1.3c0.9,1.1,1.8,2.3,2.6,3.4c1.4,1.9,1.2,4.4-0.4,6.1
			c-1.7,1.7-3.4,3.4-5.1,5.1c-1.7,1.6-4.2,1.8-6.1,0.4c-1.1-0.8-2.3-1.7-3.4-2.6c-0.6-0.5-1-0.3-2,0.2c-1.7,1-3.6,1.8-5.5,2.3
			c-1.2,0.3-1.7,0.5-1.8,1.3c-0.2,1.3-0.3,2.7-0.6,4c-0.2,0.9-0.6,1.9-1.2,2.7c-0.6,0.7-1.6,1-2.4,1.5c-3.1,0-6.2,0-9.3,0
			c-0.1-0.1-0.2-0.1-0.3-0.2c-1.9-0.6-3-1.9-3.3-3.8c-0.2-1.4-0.4-2.8-0.6-4.2c-0.1-0.6-0.3-0.8-0.9-1c-2.4-0.9-4.7-1.9-7-2.9
			c-0.5-0.2-0.8-0.3-1.3,0.1c-1.1,0.9-2.2,1.7-3.4,2.6c-2,1.5-4.4,1.4-6.2-0.4c-1.7-1.7-3.4-3.4-5.1-5.1c-1.6-1.7-1.8-4.3-0.4-6.2
			c0.8-1.1,1.6-2.2,2.5-3.3c0.5-0.6,0.4-1-0.2-1.9c-1-1.7-1.8-3.6-2.3-5.5c-0.3-1.2-0.5-1.7-1.3-1.8c-1.2-0.1-2.3-0.2-3.5-0.5
			c-1-0.2-2.2-0.5-3-1.1c-0.7-0.7-1.2-1.7-1.7-2.6v-9.3c0.7-2,2-3.4,4.2-3.6c1.3-0.2,2.7-0.4,4-0.5c0.6-0.1,0.9-0.3,1.2-1.3
			c0.5-2,1.2-3.9,2.3-5.7c0.7-1.2,0.9-1.6,0.4-2.2c-0.9-1.1-1.7-2.2-2.6-3.4c-1.5-2-1.4-4.4,0.4-6.2c1.7-1.7,3.4-3.4,5.1-5.1
			c1.8-1.8,4.1-1.9,6.2-0.4c1.1,0.8,2.3,1.7,3.4,2.6c0.4,0.3,0.8,0.3,1.3,0.1c2.3-1,4.7-2,7-2.9c0.5-0.2,0.8-0.5,0.9-1
			c0.2-1.3,0.3-2.7,0.6-4c0.2-0.9,0.6-1.9,1.2-2.7c0.3-0.4,0.8-0.7,1.3-1c1.5-0.4,3-0.8,4.5-1.2c5.2-0.1,9,0.9,9.5,4.8
			c0.2,1.3,0.4,2.7,0.5,4c0.1,0.6,0.3,0.9,1.3,1.2c2,0.5,3.9,1.2,5.6,2.2c1.2,0.7,1.6,0.9,2.2,0.5c1.1-0.9,2.2-1.7,3.4-2.6
			c1.9-1.4,4.5-1.2,6.2,0.4c1.7,1.7,3.4,3.4,5.1,5.1c1.6,1.7,1.8,4.3,0.4,6.2c-0.8,1.1-1.6,2.2-2.5,3.3c-0.5,0.6-0.3,1,0.2,2
			c1,1.8,1.8,3.6,2.3,5.5c0.3,1.2,0.5,1.6,1.3,1.7c1.3,0.2,2.7,0.4,4,0.5c1.1,0.1,2.1,0.5,2.8,1.3
			C377.5,558.5,377.9,559.3,378.3,560.1z M353.3,590.7c0.9,0.4,1.8,0.7,2.7,1.2c1.2,0.8,2.3,1.7,3.5,2.6c0.7,0.6,1.2,0.3,2-1
			c0.9-1.3,2.1-2.5,3.4-3.4c1.1-0.8,1.2-1.2,0.7-1.8c-0.9-1.1-1.8-2.3-2.6-3.4c-1-1.4-1.2-3.3-0.5-4.9c1.1-2.5,2.1-4.9,3.1-7.4
			c0.6-1.5,1.9-2.6,3.6-2.9c1.5-0.2,3-0.5,4.5-0.6c0.7-0.1,0.8-0.5,0.7-1.4c-0.3-1.9-0.3-3.8,0-5.7c0.2-1.1,0-1.5-0.8-1.6
			c-1.4-0.2-2.8-0.4-4.3-0.6c-2-0.3-3.2-1.4-3.8-3.3c-0.8-2.2-1.6-4.4-2.7-6.6c-1-2-1-3.8,0.3-5.5c0.8-1.1,1.6-2.2,2.5-3.3
			c0.5-0.6,0.3-1-0.4-1.6c-1.5-1.2-2.9-2.5-4.1-4c-0.6-0.8-1-1-1.6-0.5c-1.1,0.9-2.3,1.8-3.5,2.7c-1.4,1-3.2,1.2-4.7,0.5
			c-2.4-1.1-4.8-2.1-7.2-3c-1.8-0.7-2.9-1.9-3.2-3.8c-0.2-1.4-0.4-2.9-0.6-4.4c-0.1-0.8-0.4-0.9-1.5-0.7c-1.8,0.3-3.7,0.3-5.5,0
			c-1.2-0.2-1.6-0.1-1.7,0.7c-0.2,1.4-0.4,2.8-0.6,4.3c-0.3,2-1.4,3.2-3.3,3.9c-2.2,0.8-4.4,1.6-6.5,2.7c-2,1-3.8,1-5.6-0.3
			c-1.1-0.8-2.2-1.6-3.3-2.5c-0.6-0.5-0.9-0.4-1.5,0.4c-1.2,1.5-2.5,3-4.1,4.2c-0.9,0.6-1,1-0.5,1.6c0.9,1.2,1.8,2.3,2.7,3.5
			c1,1.4,1.1,3.2,0.5,4.7c-1.1,2.4-2.1,4.9-3.1,7.4c-0.6,1.6-2,2.7-3.6,3c-1.5,0.2-2.9,0.5-4.4,0.6c-0.8,0.1-1,0.4-0.8,1.7
			c0.3,1.8,0.3,3.7,0,5.6c-0.2,1.1,0,1.4,0.8,1.5c1.4,0.2,2.8,0.4,4.3,0.6c2,0.3,3.2,1.4,3.9,3.3c0.8,2.2,1.6,4.4,2.6,6.4
			c1,2,1,3.8-0.3,5.6c-0.8,1.1-1.7,2.3-2.6,3.4c-0.5,0.6-0.4,1,0.7,1.7c1.5,1,2.7,2.2,3.7,3.7c0.7,1.1,1.1,1.3,1.8,0.8
			c1.1-0.9,2.3-1.8,3.5-2.6c1.4-1,3.2-1.2,4.8-0.5c2.5,1.1,4.9,2.1,7.4,3.1c1.6,0.6,2.7,2,3,3.7c0.2,1.5,0.4,2.9,0.6,4.4
			c0.1,0.4,0.4,0.7,0.8,0.7c2.3,0,4.6,0,7,0c0.4,0,0.8-0.3,0.9-0.8c0.2-1.5,0.4-3,0.6-4.4c0.3-1.9,1.5-3.1,3.3-3.8
			c2.3-0.8,4.5-1.8,6.7-2.7C351.6,591.3,352.3,591,353.3,590.7z"/>
		<path class="st2" d="M293.3,569.4c0.6,0.9,1,1.9,1.7,2.6c0.8,0.7,2,0.9,3,1.1c1.1,0.2,2.3,0.3,3.5,0.5c0.8,0.1,1,0.6,1.3,1.8
			c0.5,1.9,1.3,3.8,2.3,5.5c0.5,0.9,0.6,1.3,0.2,1.9c-0.9,1.1-1.7,2.2-2.5,3.3c-1.4,1.9-1.2,4.5,0.4,6.2c1.7,1.7,3.4,3.4,5.1,5.1
			c1.8,1.8,4.1,1.9,6.2,0.4c1.1-0.8,2.3-1.7,3.4-2.6c0.4-0.3,0.8-0.3,1.3-0.1c2.3,1,4.7,2,7,2.9c0.5,0.2,0.8,0.5,0.9,1
			c0.2,1.4,0.4,2.8,0.6,4.2c0.3,2.1,1.5,3.4,3.6,3.9c0,0,0,0,0,0.1l-37.9,0C293.3,594.6,293.3,582,293.3,569.4z"/>
		<path class="st2" d="M331.2,522.2c-0.8,0.5-1.8,0.8-2.4,1.5c-0.6,0.7-1,1.7-1.2,2.7c-0.3,1.3-0.4,2.7-0.6,4
			c-0.1,0.6-0.3,0.8-0.9,1c-2.4,0.9-4.7,1.9-7,2.9c-0.5,0.2-0.8,0.3-1.3-0.1c-1.1-0.9-2.2-1.7-3.4-2.6c-2-1.5-4.4-1.4-6.2,0.4
			c-1.7,1.7-3.4,3.4-5.1,5.1c-1.8,1.8-1.9,4.1-0.4,6.2c0.8,1.1,1.7,2.3,2.6,3.4c0.5,0.6,0.3,1.1-0.4,2.2c-1.1,1.7-1.8,3.7-2.3,5.7
			c-0.2,0.9-0.5,1.2-1.2,1.3c-1.3,0.2-2.7,0.4-4,0.5c-2.2,0.3-3.5,1.6-4.2,3.6v-37.9C305.9,522.2,318.5,522.2,331.2,522.2z"/>
		<path class="st2" d="M340.5,607.3c0.8-0.5,1.8-0.8,2.4-1.5c0.6-0.7,1-1.7,1.2-2.7c0.3-1.3,0.4-2.7,0.6-4c0.1-0.8,0.6-1,1.8-1.3
			c1.9-0.5,3.8-1.3,5.5-2.3c0.9-0.5,1.4-0.7,2-0.2c1.1,0.9,2.2,1.7,3.4,2.6c1.9,1.4,4.4,1.2,6.1-0.4c1.7-1.7,3.4-3.4,5.1-5.1
			c1.6-1.7,1.8-4.2,0.4-6.1c-0.9-1.2-1.7-2.3-2.6-3.4c-0.4-0.4-0.3-0.8-0.1-1.3c1-2.3,2-4.6,2.9-7c0.2-0.6,0.5-0.9,1.2-1
			c1.4-0.1,2.7-0.3,4.1-0.6c2.1-0.3,3.4-1.5,3.9-3.6c0,0,0,0,0.1,0l0,37.9C365.7,607.3,353.1,607.3,340.5,607.3z"/>
		<path class="st2" d="M378.3,560.1c-0.5-0.8-0.8-1.6-1.4-2.3c-0.7-0.9-1.7-1.2-2.8-1.3c-1.3-0.2-2.7-0.4-4-0.5
			c-0.8-0.1-1-0.6-1.3-1.7c-0.5-1.9-1.3-3.8-2.3-5.5c-0.5-0.9-0.7-1.4-0.2-2c0.9-1.1,1.7-2.2,2.5-3.3c1.4-1.9,1.2-4.5-0.4-6.2
			c-1.7-1.7-3.4-3.4-5.1-5.1c-1.7-1.6-4.3-1.8-6.2-0.4c-1.1,0.8-2.3,1.7-3.4,2.6c-0.6,0.5-1.1,0.3-2.2-0.5c-1.7-1.1-3.7-1.8-5.6-2.2
			c-0.9-0.2-1.2-0.5-1.3-1.2c-0.2-1.3-0.4-2.7-0.5-4c-0.3-2.2-1.6-3.5-3.6-4.2h37.9C378.3,534.8,378.3,547.5,378.3,560.1z"/>
		<path class="st2" d="M353.3,590.7c-0.9,0.3-1.7,0.6-2.5,0.9c-2.2,0.9-4.5,1.9-6.7,2.7c-1.8,0.7-3,1.8-3.3,3.8
			c-0.2,1.5-0.4,3-0.6,4.4c-0.1,0.4-0.4,0.8-0.9,0.8c-2.3,0-4.6,0-7,0c-0.4,0-0.8-0.3-0.8-0.7c-0.2-1.5-0.4-3-0.6-4.4
			c-0.3-1.7-1.4-3.1-3-3.7c-2.5-1-5-2-7.5-3.1c-1.5-0.7-3.3-0.5-4.6,0.5c-1.2,0.9-2.4,1.8-3.6,2.7c-0.4,0.3-0.9,0.3-1.2-0.1
			c-1.6-1.6-3.2-3.3-4.9-4.9c-0.4-0.4-0.4-0.8-0.1-1.2c0.8-1.1,1.6-2.1,2.4-3.2c1.2-1.6,1.4-3.7,0.5-5.5c-1-2.2-1.9-4.4-2.7-6.6
			c-0.7-1.9-1.9-3.1-3.9-3.4c-1.4-0.2-2.8-0.4-4.3-0.6c-0.7-0.1-0.9-0.4-0.8-1.5c0.3-1.8,0.4-3.7,0-5.6c-0.2-1.2,0-1.6,0.8-1.7
			c1.5-0.2,2.9-0.4,4.4-0.6c1.6-0.3,3-1.4,3.6-3c1-2.5,2-5,3.1-7.4c0.7-1.5,0.5-3.3-0.5-4.7c-0.9-1.2-1.8-2.4-2.7-3.5
			c-0.5-0.6-0.4-1,0.5-1.6c1.6-1.2,2.9-2.6,4.1-4.2c0.6-0.7,0.9-0.8,1.5-0.4c1.1,0.9,2.2,1.7,3.3,2.5c1.5,1.1,3.5,1.3,5.2,0.5
			c2.2-1.1,4.5-2,6.8-2.8c1.9-0.7,3.1-1.9,3.3-3.9c0.2-1.4,0.4-2.8,0.6-4.3c0.1-0.8,0.5-0.9,1.7-0.7c1.8,0.3,3.7,0.3,5.5,0
			c1.1-0.2,1.4,0,1.5,0.7c0.2,1.5,0.4,2.9,0.6,4.4c0.3,2,1.5,3.2,3.4,3.9c2.3,0.8,4.5,1.8,6.7,2.8c1.8,0.8,3.4,0.8,5-0.4
			c1.2-0.9,2.4-1.7,3.5-2.7c0.6-0.5,1-0.3,1.6,0.5c1.2,1.5,2.6,2.8,4.1,4c0.8,0.6,0.9,1,0.4,1.6c-0.9,1.1-1.7,2.2-2.5,3.3
			c-1.1,1.5-1.3,3.4-0.5,5.1c1.1,2.3,2,4.6,2.9,6.9c0.7,1.9,1.9,3,3.9,3.3c1.4,0.2,2.8,0.4,4.3,0.6c0.8,0.1,1,0.4,0.8,1.6
			c-0.3,1.9-0.3,3.8,0,5.7c0.1,1,0,1.3-0.7,1.4c-1.5,0.2-3,0.4-4.5,0.6c-1.6,0.3-3,1.3-3.6,2.9c-1,2.5-2,5-3.1,7.4
			c-0.7,1.6-0.5,3.4,0.5,4.9c0.8,1.2,1.7,2.3,2.6,3.4c0.5,0.7,0.4,1.1-0.7,1.8c-1.3,0.9-2.5,2-3.4,3.4c-0.9,1.3-1.3,1.5-2,1
			c-1.1-0.9-2.2-1.8-3.5-2.6C355.1,591.4,354.2,591.1,353.3,590.7z M337.7,546.4c-11.7-1.1-21.4,8.6-20.2,20.3
			c0.9,8.6,7.8,15.6,16.5,16.5c11.7,1.2,21.4-8.6,20.2-20.3C353.3,554.2,346.3,547.2,337.7,546.4z"/>
		<path d="M333.9,546.4c11.7-1.2,21.4,8.5,20.2,20.2c-0.8,8.6-7.8,15.6-16.4,16.5c-11.7,1.2-21.4-8.6-20.3-20.2
			C318.3,554.2,325.3,547.2,333.9,546.4z M350.3,564.7c0-8.2-6.9-14.8-15.2-14.4c-7.4,0.3-13.4,6.4-13.8,13.8
			c-0.4,8.3,6.3,15.1,14.5,15.1C343.9,579.2,350.3,572.7,350.3,564.7z"/>
		<path class="st2" d="M350.2,562.9c1.2,9.5-6.8,17.5-16.3,16.2c-6.5-0.8-11.6-6.1-12.4-12.5c-1.2-9.5,6.8-17.4,16.2-16.2
			C344.1,551.2,349.4,556.4,350.2,562.9z"/>
	</g>
	
		<image style="overflow:visible;enable-background:new    ;" width="114" height="114" id="image73" xlink:href="A6BC3D5B.png"  transform="matrix(0.75 0 0 0.75 290.0689 127.8091)">
	</image>
	
		<image style="overflow:visible;enable-background:new    ;" width="114" height="114" id="image97" xlink:href="A6BC3D59.png"  transform="matrix(0.75 0 0 0.75 40.6201 694.7382)">
	</image>
	
		<image style="overflow:visible;enable-background:new    ;" width="114" height="114" id="image128" xlink:href="A6BC3D5F.jpg"  transform="matrix(0.75 0 0 0.75 154.0059 694.7382)">
	</image>
	
		<image style="overflow:visible;enable-background:new    ;" width="114" height="114" id="image139" xlink:href="A6BC3D59.jpg"  transform="matrix(0.75 0 0 0.75 244.7145 694.7382)">
	</image>
	
		<image style="overflow:visible;enable-background:new    ;" width="114" height="114" id="image150" xlink:href="A6BC3D5B.jpg"  transform="matrix(0.75 0 0 0.75 330.2618 647.0452)">
	</image>
	<g>
		<path class="st2" d="M463.5,71.9H501v85.5h-85.5v-37.5c1.7,1,3.5,3,5.1,2.8c5.5-0.5,4.5,4.3,6.2,6.8c1.4,2.1,0.5,3.7-1,5.3
			c-2.1,2.1-2.6,4.8-0.5,6.8c2.9,2.9,4.8,7.7,10.3,6.5c0.5-0.1,1-0.3,1.3-0.7c2.6-3.6,5.5-2.5,8.6-0.7c1.1,0.7,2.5,0.8,3.7,1.2
			c0.6,8.2,1.1,8.7,9,8.7c1.1,0,2.3-0.1,3.4,0c3.4,0.3,4.6-1.8,5-4.6c0.6-5.1,7.7-8.4,11.9-5.3c3.1,2.3,5.6,2.2,8.1-0.7
			c0.9-1,1.9-1.9,2.9-2.9c3.4-3.4,3.6-4.7,0.6-8.6c-1.6-2.1-2.1-3.7-0.4-5.8c0.7-0.9,0.8-2.4,1.6-3.3c0.9-1,2.1-2.3,3.3-2.4
			c4.6-0.5,5.7-1.6,5.7-6.3c0-1.1,0-2.2,0-3.4c0-6.5-0.8-7.3-7.4-7.7c-0.5,0-1-0.1-1.2-0.2c-0.7-1.7-1.1-3.3-1.9-4.6
			c-1.5-2.6-1.9-4.7,0.7-7.1c2.3-2.1,1.9-4.9-0.2-7.3c-1.3-1.5-2.8-2.8-4.3-4.2c-2.5-2.5-5-2.4-7.8-0.3c-1.2,0.9-3.2,1.2-4.8,1.2
			c-1.5-0.1-3.2-0.8-4.4-1.7c-1.1-0.8-1.9-2.2-2.6-3.4C465.5,76,464.5,73.9,463.5,71.9z"/>
		<path d="M466.6,78.1c0.7,1.3,1.4,2.6,2.6,3.4c1.2,0.9,2.9,1.6,4.4,1.7c1.6,0.1,3.6-0.2,4.8-1.2c2.9-2.2,5.3-2.2,7.8,0.3
			c1.4,1.4,2.9,2.7,4.3,4.2c2.1,2.3,2.5,5.2,0.2,7.3c-2.6,2.4-2.2,4.5-0.7,7.1c0.8,1.4,1.2,2.9,1.9,4.6c0.2,0,0.7,0.1,1.2,0.2
			c6.6,0.5,7.4,1.3,7.4,7.7c0,1.1,0,2.2,0,3.4c0,4.6-1.2,5.7-5.7,6.3c-1.2,0.1-2.4,1.4-3.3,2.4c-0.8,0.9-0.8,2.4-1.6,3.3
			c-1.7,2.2-1.2,3.8,0.4,5.8c3,3.9,2.7,5.2-0.6,8.6c-1,1-2,1.9-2.9,2.9c-2.5,2.8-5,3-8.1,0.7c-4.2-3.1-11.3,0.2-11.9,5.3
			c-0.4,2.8-1.6,5-5,4.6c-1.1-0.1-2.2,0-3.4,0c-7.9,0-8.4-0.5-9-8.7c-1.2-0.4-2.6-0.5-3.7-1.2c-3.1-1.9-6-2.9-8.6,0.7
			c-0.3,0.4-0.8,0.6-1.3,0.7c-5.5,1.2-7.4-3.7-10.3-6.5c-2.1-2-1.6-4.7,0.5-6.8c1.5-1.5,2.5-3.2,1-5.3c-1.7-2.5-0.7-7.3-6.2-6.8
			c-1.6,0.1-3.4-1.8-5.1-2.8v-11.3c1.9-1,3.8-2.7,5.8-2.7c3.7,0,3.6-2.7,4.8-4.9c1.4-2.5,1.8-4.4-0.1-6.9c-3.1-4.2-2.9-4.7,0.7-8.4
			c0.7-0.7,1.4-1.4,2.1-2.1c4.2-4.2,4.9-4.3,9.6-1.1c3.3,2.3,9.9-0.6,10.9-4.5c1.5-5.9,9.1-10.3-1.5-19.3
			C460.8,61.5,462.4,70.5,466.6,78.1z M488.4,138.3c-4.3-3.5-5.2-7.3-2.1-11.9c0.7-1,0.6-2.5,1.3-3.4c1.3-1.5,2.9-3.7,4.4-3.7
			c4.5,0.1,4.8-2.3,4.5-5.6c-0.1-1.1,0-2.2,0-3.5c-5.2-0.3-8.3-2.1-10.5-7.4c-2.1-5.3-1.5-8.8,2.4-12.7c-1.4-1.2-2.8-2.2-3.8-3.4
			c-1.8-2.2-3.3-2.5-5.4-0.2c-1.9,1.9-4.3,2.6-7,0.8c-1.7-1.1-4-1.4-5.7-2.6c-1.5-1-3.6-2.7-3.6-4c0.1-4.6-2.2-5.5-6-5
			c-1,0.1-2,0.1-3.3,0.2c0.6,6.4-3.2,8.8-8.6,10.8c-3.6,1.4-6.3,1.9-8.9-0.7c-2.6-2.6-3.8-0.5-5.4,1.1c-1.7,1.6-3.8,3-1.1,5.7
			c2.5,2.5,1.8,5.2,0.7,8.6c-1.9,5.7-4.6,9.2-11.1,8.8c0,2.1,0.2,3.7,0,5.3c-0.3,2.6,0.9,3.8,3.3,3.7c3.6-0.1,5.4,1.8,6.4,4.9
			c0.6,1.7,1.7,3.3,2,5.1c0.3,1.8,0.7,4.4-0.3,5.3c-3.8,3.7-1.5,5.9,1.3,8.3c0.7,0.5,1.3,1.2,2,1.9c3.7-3.9,7.2-4.1,12.5-2.1
			c5.5,2.1,6.9,5.4,7.4,10.4c2.3,0,4.3,0.3,6.2-0.1c1-0.2,2.5-1.5,2.5-2.3c-0.2-5.2,3.3-7,8.4-7.9c3.1-2.5,5.6-2.4,8-0.4
			c1,0.9,2.1,1.6,2.9,2.2C484.2,142.3,486.1,140.5,488.4,138.3z"/>
		<path class="st2" d="M452.3,71.9c-1,2-2.3,4-2.9,6.2c-1,3.9-7.5,6.8-10.9,4.5c-4.8-3.2-5.4-3.1-9.6,1.1c-0.7,0.7-1.4,1.4-2.1,2.1
			c-3.6,3.6-3.8,4.1-0.7,8.4c1.9,2.5,1.5,4.4,0.1,6.9c-1.2,2.1-1.1,4.8-4.8,4.9c-1.9,0-3.9,1.8-5.8,2.7V71.9H452.3z"/>
		<path class="st2" d="M488.4,138.3c-2.3,2.2-4.3,4.1-6.4,6.1c-0.8-0.6-1.9-1.4-2.9-2.2c-2.5-2-5-2.1-8,0.4
			c-5.2,0.9-8.6,2.7-8.4,7.9c0,0.8-1.5,2.1-2.5,2.3c-1.9,0.4-4,0.1-6.2,0.1c-0.5-4.9-1.9-8.3-7.4-10.4c-5.3-2-8.8-1.8-12.5,2.1
			c-0.7-0.7-1.3-1.3-2-1.9c-2.9-2.4-5.1-4.6-1.3-8.3c1-0.9,0.6-3.6,0.3-5.3c-0.3-1.8-1.5-3.4-2-5.1c-1-3.2-2.8-5.1-6.4-4.9
			c-2.4,0.1-3.6-1.1-3.3-3.7c0.2-1.6,0-3.2,0-5.3c6.5,0.4,9.2-3.1,11.1-8.8c1.1-3.4,1.8-6.1-0.7-8.6c-2.7-2.7-0.6-4,1.1-5.7
			c1.6-1.5,2.8-3.7,5.4-1.1c2.6,2.6,5.3,2.1,8.9,0.7c5.4-2.1,9.1-4.4,8.6-10.8c1.3-0.1,2.3-0.1,3.3-0.2c3.8-0.5,6.1,0.3,6,5
			c0,1.3,2.1,3,3.6,4c1.7,1.1,4,1.4,5.7,2.6c2.7,1.8,5.1,1.2,7-0.8c2.2-2.3,3.6-2,5.4,0.2c1,1.2,2.4,2.2,3.8,3.4
			c-3.9,3.9-4.5,7.4-2.4,12.7c2.1,5.3,5.2,7.2,10.5,7.4c0,1.3-0.1,2.4,0,3.5c0.3,3.3,0,5.8-4.5,5.6c-1.4,0-3.1,2.2-4.4,3.7
			c-0.7,0.9-0.7,2.4-1.3,3.4C483.3,131,484.2,134.8,488.4,138.3z M476.3,114.6c1.1-10.1-8.8-18.7-18.3-18.7
			c-10,0-18.4,8.4-18.4,18.3c-0.1,9.8,8.8,18.6,18.2,18.6C467.9,132.8,477.1,124,476.3,114.6z"/>
		<path d="M476.3,114.6c0.8,9.4-8.4,18.3-18.5,18.3c-9.4,0-18.3-8.9-18.2-18.6c0.1-10,8.5-18.3,18.4-18.3
			C467.5,95.8,477.4,104.5,476.3,114.6z M472.5,114.6c0-9.2-6.8-15-14.6-14.8c-8.4,0.1-14.4,6.3-14.4,14.5
			c-0.1,7.6,5,14.2,14.1,14.5C465.8,129.1,472.5,122.5,472.5,114.6z"/>
		<path class="st2" d="M472.5,114.6c0,7.9-6.7,14.5-14.9,14.2c-9.1-0.3-14.2-6.9-14.1-14.5c0.1-8.2,6.1-14.4,14.4-14.5
			C465.8,99.7,472.5,105.4,472.5,114.6z"/>
	</g>
	<g>
		<path class="st2" d="M461.7,584.7c-1,2-2.3,4-2.9,6.2c-1,3.9-7.5,6.8-10.9,4.5c-4.8-3.2-5.4-3.1-9.6,1.1c-0.7,0.7-1.4,1.4-2.1,2.1
			c-3.6,3.6-3.8,4.1-0.7,8.4c1.9,2.5,1.5,4.4,0.1,6.9c-1.2,2.1-1.1,4.8-4.8,4.9c-1.9,0-3.9,1.8-5.8,2.7v-36.8"/>
		<path class="st2" d="M497.9,651.1c-2.3,2.2-4.3,4.1-6.4,6.1c-0.8-0.6-1.9-1.4-2.9-2.2c-2.1-1.8-4.3-2.1-6.9-0.4
			c-0.9,0.5-1.8,0.9-2.8,1.2c-4.2,1-6.9,2.9-6.7,7.5c0,0.8-1.5,2.1-2.5,2.3c-1.9,0.4-4,0.1-6.2,0.1c-0.5-4.9-1.9-8.3-7.4-10.4
			c-5.3-2-8.8-1.8-12.5,2.1c-0.7-0.7-1.3-1.3-2-1.9c-2.9-2.4-5.1-4.6-1.3-8.3c1-0.9,0.6-3.6,0.3-5.3c-0.3-1.8-1.5-3.4-2-5.1
			c-1-3.2-2.8-5.1-6.4-4.9c-2.4,0.1-3.6-1.1-3.3-3.7c0.2-1.6,0-3.2,0-5.3c6.5,0.4,9.2-3.1,11.1-8.8c1.1-3.4,1.8-6.1-0.7-8.6
			c-2.7-2.7-0.6-4,1.1-5.7c1.6-1.5,2.8-3.7,5.4-1.1c2.6,2.6,5.3,2.1,8.9,0.7c5.4-2.1,9.1-4.4,8.6-10.8c1.3-0.1,2.3-0.1,3.3-0.2
			c3.8-0.5,6.1,0.3,6,5c0,1.3,2.1,3,3.6,4c1.7,1.1,4,1.4,5.7,2.6c2.7,1.8,5.1,1.2,7-0.8c2.2-2.3,3.6-2,5.4,0.2
			c1,1.2,2.4,2.2,3.8,3.4c-3.9,3.9-4.5,7.4-2.4,12.7c2.1,5.3,5.2,7.2,10.5,7.4c0,1.3-0.1,2.4,0,3.5c0.3,3.3,0,5.8-4.5,5.6
			c-1.4,0-3.1,2.2-4.4,3.7c-0.7,0.9-0.7,2.4-1.3,3.4C492.7,643.8,493.6,647.7,497.9,651.1z M485.7,627.4
			c1.1-10.1-8.8-18.7-18.3-18.7c-10,0-18.4,8.4-18.4,18.3c-0.1,9.8,8.8,18.6,18.2,18.6C477.3,645.7,486.5,636.8,485.7,627.4z"/>
		<path d="M485.7,627.4c0.8,9.4-8.4,18.3-18.5,18.3c-9.4,0-18.3-8.9-18.2-18.6c0.1-10,8.5-18.3,18.4-18.3
			C477,608.7,486.9,617.3,485.7,627.4z M482,627.5c0-9.2-6.8-15-14.6-14.8c-8.4,0.1-14.4,6.3-14.4,14.5c-0.1,7.6,5,14.2,14.1,14.5
			C475.2,641.9,481.9,635.4,482,627.5z"/>
		<path class="st2" d="M467.1,641.7c-9.1-0.3-14.2-6.9-14.1-14.5c0.1-8.2,6.1-14.4,14.4-14.5"/>
	</g>
</g>
</svg>
